<?xml version="1.0" encoding="utf-8"?>
<!-- Generator: Adobe Illustrator 25.2.3, SVG Export Plug-In . SVG Version: 6.00 Build 0)  -->
<svg version="1.1" id="Слой_1" xmlns="http://www.w3.org/2000/svg" xmlns:xlink="http://www.w3.org/1999/xlink" x="0px" y="0px"
	 viewBox="0 0 1037.1 192.1" style="enable-background:new 0 0 1037.1 192.1;" xml:space="preserve">
<g id="Слой_2_1_">
	<g id="Слой_1-2" style="fill: #fff;">
		<path d="M97.8,179.6c-0.8-0.2-1.7-0.3-2.7-0.6c-0.8-0.2-1.6-0.4-2.3-0.8c-1.8-0.8-3.4-1.9-4.7-3.3c-1.4-1.3-2.6-2.9-3.5-4.5
			c-0.7-1.4-1-2.8-1-4.3c0-4.2,2.4-9,7.2-14.6c6.4-7.6,16.7-15.9,30.9-24.7c3.7-2.3,6-4.1,6.8-5.3c0.4-0.7,1.5-2.9,3.2-6.6
			c1.7-3.7,3.6-8,5.8-13c4.9-11.2,9.9-22.3,15-33.3c5-10.9,9.2-19.8,12.6-26.5c1.4-2.8,2.6-5.3,3.7-7.5c1.1-2.2,1.8-3.6,2-4.2
			c0.3-0.6,0.5-1.3,0.5-1.9c0.1-0.6-0.3-1.2-1-1.5c-0.6-0.2-1.2-0.2-1.8-0.2c-2.1,0.1-4.2,0.3-6.2,0.8
			c-22.4,4.2-45.1,11.7-68.3,22.7c-23.1,11-43.2,23.8-60.1,38.3c-3.2,2.6-6.2,5.5-8.8,8.6c-1.5,1.8-2.5,3.8-2.9,6
			c-0.3,2-0.7,3.2-1.4,3.6c-0.6,0.4-1.3,0.6-2.1,0.6c-1.2,0-2.4-0.5-3.3-1.2c-1.8-1.5-2.8-3.7-2.7-5.9c0-4.1,5.2-10.6,15.7-19.5
			c19.7-16.5,42.1-30.4,66.4-41.2c25.1-11.3,50-18.8,74.6-22.4c6.7-0.9,13.5-1.3,20.2-1.2c6-0.1,12.1,0.3,18,1.2
			c11.3,2.1,20.2,6,26.9,11.6c6.8,5.9,10.6,11.3,11.2,16.3c0.7,4.9,1,8.4,1,10.4c0,5.9-1.2,11.8-3.4,17.3c-1.8,4.3-4,8.5-6.5,12.6
			c-3,5.1-6,9.6-8.8,13.5c-11.7,15-25.6,28.7-41.2,40.7c-15.3,12.2-32.3,22.7-50.5,31.2c-13.8,6.1-25.2,9.2-34.2,9.2
			C100.6,179.8,99.2,179.7,97.8,179.6z M107.9,170.1c17.8-4.2,39.1-15.2,64.1-33.1c2.9-2.1,6.8-5.2,11.8-9.4
			c5-4.2,9.7-8.2,14.2-12.2c4.5-4,7.5-6.8,9-8.4c0.6-0.7,1.1-1.4,1.6-2.2c0.3-0.4,0.5-0.9,0.5-1.4v-0.1c-0.2-0.5-0.9-0.8-2.2-0.8
			c-1.9,0-5,0.6-9.4,1.8c-7.3,2-17.2,5.4-29.8,10.4c-5.6,2.3-11.1,4.6-16.4,7c-3.7,1.6-7.2,3.3-10.7,5.3c-1.2,0.7-2.4,2.1-3.4,4.1
			c-1.1,2.1-2.6,5.7-4.6,10.8c-2.3,5.9-3.9,9.3-4.8,10.2c-0.6,0.5-1.4,0.9-2.3,1c-0.7,0-1.2,0.1-1.5,0.1c-0.7,0-1.5-0.2-2.1-0.6
			c-1-0.6-1.8-1.6-2-2.7c-0.2-0.8-0.3-1.5-0.3-2.3c0-1.3,0.2-2.5,0.7-3.7c0.2-0.6,0.2-1.2,0.3-1.8c0-1-0.3-1.5-1-1.5
			c-1.1,0.2-2.2,0.6-3.1,1.2c-3.1,2.2-6,4.6-8.8,7.1c-2.9,2.5-5.7,5.2-8.3,8c-4.4,5.1-6.6,8.9-6.6,11.4c0,0.8,0.3,1.6,0.9,2.2
			c0.7,0.6,2.2,0.9,4.4,0.9h0.8C101.9,171.2,105,170.8,107.9,170.1z M158.5,108.7c18.5-7.5,32.9-12.2,43.2-14.3
			c1.8-0.4,3.6-0.7,5.5-0.9c1.1-0.1,2.1-0.1,3-0.1c0.9,0,1.8,0,2.7,0.1l4.9,0.3l2.1-1.8c2.3-2.2,5-5.9,8.2-11
			c3-4.8,5.7-9.7,7.9-14.8c2.5-6,3.8-11.4,3.8-16.1c0-5-1.5-9.1-4.4-12.5c-5.8-6.4-16.2-10.5-31.2-12.3c-2.7-0.3-5.5-0.5-8.2-0.6
			c-2.1,0-3.4-0.1-3.9-0.1c-2-0.1-3.9,0.1-5.9,0.5c-0.5,0.1-0.9,0.3-1.2,0.6c-0.4,0.4-0.6,0.8-0.7,1.3c-0.2,0.6-0.4,1.5-0.7,2.7
			c-0.3,1.1-0.7,2.2-1.2,3.2c-0.7,1.5-1.5,3.2-2.5,4.9c-2.3,4.3-5.4,10.3-9,17.9c-3.7,7.6-7.4,15.5-11.2,23.7
			c-3.8,8.2-7,15.3-9.6,21.3c-2.6,6-4,9.4-4,10.1v0.3c0,1.1,0.4,1.7,1.3,1.7c1.2-0.3,2.3-0.8,3.4-1.2
			C153,110.9,155.6,109.9,158.5,108.7L158.5,108.7z"/>
		<path d="M220.1,140.9c-0.7-0.5-1.3-1.1-1.7-1.8c-0.3-0.7-0.4-1.4-0.4-2.1c0.1-1.7,0.7-3.3,1.6-4.8c2.2-3.6,4.6-7.2,7.3-10.6
			c3.4-4.5,6.7-8.7,10.1-12.7c2.1-2.7,4.5-5.3,7-7.7c1.2-0.8,2.6-1.3,4.2-1.4c0.6,0,1.1,0.1,1.7,0.2c1.9,0.6,2.9,1.9,2.9,4
			c0,0.9-0.3,1.8-0.7,2.5c-0.8,1.3-1.7,2.6-2.7,3.8c-2.3,2.9-3.5,4.8-3.5,5.5c0,0.2,0.1,0.3,0.3,0.3c0,0,0.1,0,0.1,0h0.4
			c1-0.4,1.9-0.9,2.9-1.5c1.6-0.9,3.6-2,5.9-3.4c6.9-4.1,11.8-6.5,14.6-7.4c2-0.7,4.1-1.2,6.2-1.3c1.5,0,3,0.4,4.2,1.1
			c1.3,0.6,2.4,1.6,3.1,2.8c0.5,1.1,0.7,2.3,0.7,3.5c0,0.6,0,1.2-0.1,1.8c-0.1,0.6-0.1,1.1-0.1,1.7c0,1.1,0.2,1.7,0.7,1.9
			c0.2,0.1,0.4,0.1,0.7,0.1c1.2-0.2,2.4-0.6,3.5-1.1c2.2-1.1,4.6-1.8,7.2-1.9c0.9,0,1.9,0.1,2.7,0.5c1.2,0.5,2.2,1.3,3,2.2
			c0.8,0.8,1.2,1.8,1.3,2.9c-0.1,0.6-0.3,1.2-0.7,1.8c-0.4,0.9-1,1.8-1.6,2.9c-1.7,2.6-2.6,4.5-2.6,5.9c0,1.6,1.2,2.4,3.5,2.4
			c4.2,0,14.4-3.4,30.6-10.3c4.1-1.8,7.6-3.3,10.7-4.5c1.7-0.8,3.4-1.4,5.2-1.8c1.6,0.1,2.8,0.5,3.3,1.3c0.5,0.7,0.8,1.4,0.8,2.2
			c0,0.7-0.2,1.3-0.5,1.9c-0.5,1-2.3,2.3-5.2,3.9c-2.9,1.6-7.7,3.8-14.3,6.7c-13.7,6-23.7,8.9-29.9,8.9c-1.4,0-2.8-0.2-4.2-0.6
			c-4-1.1-7.1-3.7-8.7-7c-0.6-1.1-1.1-2.1-1.6-2.8c-0.2-0.4-0.5-0.8-0.7-1.2c-0.1-0.6-0.8-1-1.4-0.9c-1.4,0-3.7,1.1-6.9,3.2
			c-4.1,2.5-6.7,3.9-7.9,4.1c-0.7,0.2-1.5,0.3-2.3,0.3c-1.5,0-2.9-0.7-3.8-1.8c-1-0.9-1.6-2.1-1.6-3.4c0-0.5,0.1-1.1,0.3-1.6
			c0.4-2,2-4.8,4.6-8.5c1.4-1.8,2.1-3.1,2.1-3.9c0-0.5-0.4-0.8-1.2-0.8c-1.6,0-5.3,1.9-11.2,5.8c-6.2,4.1-12.2,8.6-17.8,13.3
			c-2.4,2-4.6,3.8-6.5,5.3c-1.2,1-2.4,1.9-3.8,2.7c-0.7,0.3-1.4,0.5-2.1,0.6c-0.8,0.1-1.6,0.2-2.5,0.2c-1,0-1.9-0.1-2.9-0.3
			C221.4,141.9,220.7,141.4,220.1,140.9z"/>
		<path d="M360.7,163.1c-2.6-0.9-4.1-2.1-4.4-3.7c-0.2-1-0.4-1.9-0.5-2.9c0.1-2.5,1.3-4.8,3.3-6.6c1.4-1.4,3.4-2.2,5.5-2.3
			c0.4,0,0.7,0,1,0.1c1.9,0.2,3.7,1.2,4.7,2.6c0.8,1.1,1.2,2.3,1.3,3.5c-0.1,1.5-0.5,2.9-1.3,4.2c-1.3,2.3-2.7,3.7-4.2,4.4
			c-1.1,0.6-2.4,0.9-3.6,1C361.9,163.4,361.3,163.3,360.7,163.1z"/>
		<path d="M380.1,170.4c-3-1.6-4.6-3.6-4.6-6c0-1.2,0.3-2.4,0.9-3.5c0.6-2.6,16.6-15.8,48-39.5c27-20.5,45.9-35.1,56.8-44
			c10.9-8.9,18.6-15.8,22.9-20.7c6.5-7.2,9.8-12.8,9.8-16.6c0-1.1-0.3-2.1-0.9-3.1c-1.5-1.4-3.9-2.5-7.3-3.1
			c-3.2-0.6-6.5-0.9-9.8-0.9c-1.6,0-3.4,0.1-5.2,0.2c-12,1.1-23.8,3.5-35.2,7c-11.7,3.6-20.3,7.5-25.6,11.6c-0.7,0.5-1.4,1-2,1.4
			c-0.4,0.3-1,0.6-1.5,0.7c-0.2,0.1-0.4,0.1-0.7,0.1c-0.8,0-1.5-0.3-2.1-0.8c-0.9-0.7-1.5-1.6-1.7-2.6c-0.1-0.4-0.1-0.8-0.1-1.2
			c0-3.7,4.2-7.4,12.7-11c10.7-4.7,21.9-8.3,33.5-10.8c10.9-2.2,19.8-3.3,26.5-3.3c2.4,0,4.9,0.1,7.3,0.5
			c9.6,1.2,15.6,5.4,17.8,12.7c0.7,1.8,1,3.7,1,5.5c0,2.4-0.6,4.8-1.6,7c-1.9,4.6-4.6,8.9-8.1,12.7c-3.9,4.5-10.2,10.4-18.7,17.8
			c-6.2,5.5-13.6,11.6-22.1,18.3c-8.5,6.7-21.2,16.5-38.2,29.4c-22.3,16.9-34.8,26.7-37.7,29.3c-0.6,0.6-1,1.4-1.2,2.2
			c0,0.6,0.5,0.9,1.6,0.9c1.3-0.2,2.6-0.4,3.8-0.7c2.2-0.5,4.7-1,7.6-1.6c16.5-3.5,31.7-6.5,45.8-8.8c14-2.3,23.1-3.5,27.2-3.5h1
			c4.1,0.8,6.1,2.2,6.1,4.4c0,0.3,0,0.6-0.1,0.9c-0.1,0.8-0.8,1.3-2.1,1.7c-2.3,0.5-4.6,0.9-7,1c-5.5,0.6-14.1,2-26,4.2
			c-11.9,2.2-24.1,4.7-36.5,7.5c-8.8,2-15.5,3.4-20,4.2c-3.2,0.7-6.5,1.1-9.8,1.2C383.1,171.5,381.5,171.1,380.1,170.4z"/>
		<path d="M494.5,147.4c-0.3,0-0.6-0.1-0.8-0.1c-0.4-0.1-0.8-0.2-1.2-0.2c-1.3-0.4-2.5-1.1-3.5-1.9c-1.2-0.9-2.2-1.9-3-3.1
			c-0.6-1.1-0.9-2.3-0.9-3.5c0-3.1,1.6-7,4.8-11.7c3.3-4.5,7-8.8,11.1-12.7c3.7-3.8,7.7-7.3,12.1-10.5c4.9-3.2,9.5-4.8,13.7-4.8
			c3.9,0.1,7.6,1.4,10.3,3.9c0.5,0.5,1.1,1,1.6,1.5c0.5,0.5,0.9,1,1.4,1.5c0.7,1,1.2,2.1,1.7,3.2c0.6,1.4,1.1,2.8,1.6,4.1
			c0.4,1,0.6,2,0.7,3c-0.1,1-0.3,1.9-0.7,2.8c-0.4,1.4-1,3-1.6,4.6c-0.7,1.7-1.3,3.3-1.8,4.9c-0.4,1.2-0.7,2.4-0.8,3.6
			c-0.1,0.4-0.1,0.8-0.1,1.1c0,1,0.2,1.9,0.8,2.7c0.7,1,2,1.5,3.9,1.5c2.7-0.3,5.3-0.9,7.8-1.8c3.4-1.1,6.7-2.4,9.9-3.9
			c3.3-1.7,7.2-3.9,11.6-6.6c3.7-2.3,7.3-4.7,10.7-7.4c2.5-2,4.2-3.2,5.1-3.5c0.6-0.2,1.2-0.3,1.8-0.4c1,0,1.9,0.4,2.6,1
			c0.8,0.5,1.4,1.2,1.7,2c0.1,0.5,0.2,1,0.3,1.5c0,0.8-0.2,1.5-0.7,2.2c-1.8,2.6-7.4,7-16.8,13.2c-12.8,8.2-23.3,12.2-31.3,12.2
			h-1.3c-8-1-13.3-5.2-16-12.7c-0.2-1-0.6-2-1.3-2.8c-0.3-0.3-0.7-0.5-1.2-0.5c-0.5,0-1,0.1-1.4,0.3c-0.3,0.2-1.5,1-3.5,2.3
			c-2,1.3-4.3,2.9-7,4.8c-2.7,1.8-5.2,3.5-7.5,5c-1.6,1.1-3.2,2.1-4.9,2.9c-1.3,0.6-2.6,1.1-4,1.5c-0.9,0.3-1.9,0.5-2.9,0.5
			C494.9,147.6,494.7,147.5,494.5,147.4z M510.5,128.1c8.3-5.5,13.9-9.4,16.6-11.7c2.8-2.3,4.2-4,4.2-5.2v-0.3
			c-0.2-0.8-0.9-1.3-1.8-1.2c-1.4,0.1-2.7,0.5-3.9,1.1c-3.3,1.6-7.1,4.3-11.4,8.2c-2.8,2.4-5.3,5-7.7,7.8c-2.1,2.5-3.2,4-3.2,4.6
			c0,0.2,0.1,0.3,0.3,0.3c0,0,0.1,0,0.1,0C504.5,131.6,506.8,130.4,510.5,128.1L510.5,128.1z"/>
		<path d="M561.2,167.1c-0.6-0.4-1.1-1-1.3-1.7c-0.1-0.5-0.1-0.8-0.1-0.9c0.1-1.4,0.5-2.9,1.2-4.2c0.9-2,2.3-4.8,4.4-8.4
			c2.1-3.6,5-8.4,8.7-14.4c19.2-31.3,38.7-61.3,58.4-89.8c0.7-1.1,1.4-2.2,2.2-3.3c1.3-1.9,2.4-3.5,3.4-4.9c1-1.4,1.6-2.3,1.8-2.8
			c1.6-2.3,3.6-3.4,6-3.4c1.5-0.1,3,0.5,3.8,1.6c0.8,1,1.2,2.1,1.2,3.3c0,0.5,0,1.1-0.1,1.6c-0.9,1.6-1.8,3.2-2.9,4.7
			c-1.7,2.7-3.8,5.8-6.2,9.3c-4.4,6.4-10.3,15.1-17.6,26.1c-7.3,11-12.7,19.3-16.4,25.1c-1.5,2.5-2.2,4.2-2.2,5
			c0,0.5,0.2,0.8,0.7,0.8c0.8-0.3,1.5-0.8,2.1-1.3c1.3-0.9,2.8-1.9,4.5-3.1c12.7-9.7,22-14.6,28-14.6c0.5,0,1,0,1.4,0.1
			c1.7,0.2,3.4,0.8,4.8,1.6c1.5,0.8,2.9,1.9,3.9,3.2c1.1,1.7,1.7,3.6,1.7,5.5v1.2c-0.3,2.4-0.9,4.8-2,7.1
			c-3.3,6.7-7.7,12.9-13.1,18.5c-5.2,5.7-11.3,10.7-18.2,14.8c-2.8,1.6-5.9,3-9,4.1c-2.6,0.8-5.4,1.3-8.3,1.2
			c-1.6,0-3.2-0.1-4.7-0.3c-1.6-0.3-3.1-0.9-4.5-1.5c-0.1-0.1-0.3-0.1-0.4-0.1c-1.5-0.8-3.1-1.2-4.8-1.4c-1.2,0-2.6,0.8-4.1,2.5
			s-3.8,4.6-7,8.8c-0.1,0.2-0.2,0.4-0.4,0.6c-1.8,2.3-3.4,4.3-4.9,6c-0.9,1.1-1.8,2.2-2.8,3.2c-0.9,0.7-2,1.1-3.3,1.1h-0.4
			C563.5,168.4,562.2,167.9,561.2,167.1z M606.2,140.6c6.9-3.2,14-8.5,21.3-15.7c7.2-7.2,12.2-14,14.9-20.4c0.3-0.8,0.5-1.7,0.5-2.6
			c0-1.3-0.6-1.9-1.8-1.9c-2.2,0-6.3,2-12.5,6.1c-3.3,2.3-7.3,5.4-12.1,9.4c-4.8,4-9.2,7.9-13.2,11.7c-4,3.8-6.6,6.6-7.6,8.2
			c-0.8,1.3-1.2,2.7-1.3,4.1c0,0.8,0.2,1.6,0.7,2.3c0.3,0.3,0.6,0.6,0.9,0.8c0.3,0.2,0.6,0.2,1,0.2h2.1
			C601.5,142.4,603.9,141.6,606.2,140.6L606.2,140.6z"/>
		<path d="M669.6,147.4c-6.1-1.3-11.2-5-13.8-10c-1.3-2-2-4.3-2-6.7c0.1-3.1,1-6.1,2.7-8.8c2.4-3.9,5.3-7.6,8.8-10.8
			c3.2-3.2,6.8-6,10.9-8.2c1.6-0.8,3.4-1.2,5.2-1.2c1.5,0,2.9,0.4,4.2,1c2.8,1.4,4.6,3.9,5.5,7.5c0.1,0.5,0.1,1,0.1,1.5
			c0,1.4-0.2,2.7-0.7,4.1c-0.5,1.9-1.4,3.8-2.6,5.4c-3.7,5.1-9.4,7.6-16.9,7.6c-1.9-0.1-3.9,0.1-5.7,0.6c-1.1,0.4-2,1.2-2.5,2.2
			c-0.5,0.9-0.7,1.9-0.8,2.9c0,2,1.2,3.4,3.6,4.4c3.6,1,7.3,1.4,11.1,1.4c10.7,0,24.9-2.9,42.6-8.7c5.9-2,12.4-4.6,19.6-7.6
			c7.2-3.1,13.6-5.9,19.2-8.4c1.1-0.5,2.3-0.7,3.5-0.8c0.8,0,1.6,0.2,2.2,0.7c1.1,0.9,1.7,2.2,1.7,3.5v0.3c0,1.4-0.8,2.8-2.2,3.5
			c-4.4,2.2-9.8,4.7-16.1,7.4c-6.3,2.8-12.5,5.3-18.5,7.5c-4.9,1.8-10.4,3.6-16.4,5.3c-6,1.7-11.2,3-15.5,3.8c-4,0.8-8,1.3-12.1,1.5
			c-3.1,0.1-5.1,0.1-6,0.1C675.9,148.3,672.7,148,669.6,147.4z M677.7,117.6c0.5-0.3,0.9-0.7,1.3-1.2c0.4-0.5,0.8-1,1.2-1.5
			c0.3-0.4,0.5-0.8,0.5-1.2c0-0.2-0.1-0.4-0.4-0.5c0,0-0.1,0-0.1,0c-0.3,0-0.5,0.1-0.8,0.2c-1,0.4-1.9,0.9-2.7,1.6
			c-1.3,1.1-2,2-2,2.7v0.2c0.1,0.2,0.4,0.4,0.7,0.3C676.2,118.3,677,118.1,677.7,117.6z"/>
		<path d="M780.9,150.7c-7.2-1.3-13.7-4.4-18.9-8.9c-1.4-1.4-2.6-3.1-3.4-4.9c-1.3-3.2-2-6.5-2-9.9c0-2.9,0.4-5.7,1-8.5
			c4-14.7,12.2-30.5,24.6-47.3c12.4-16.8,25.9-30.3,40.4-40.5c5.4-3.7,10-5.5,13.9-5.5c1,0,2,0.2,3,0.5c2,0.6,3.7,1.9,4.8,3.5
			c1.2,1.6,1.8,3.5,1.8,5.4v0.5c-0.8,4.8-4.9,11.8-12.5,20.8c-8.1,9.6-16.9,18.6-26.5,27c-10.1,9-19.5,15.9-28.2,20.6
			c-1.8,0.8-3.4,1.9-4.9,3.1c-1.1,1.1-2,2.3-2.5,3.6c-3.3,7.1-5,12.3-5.1,15.6c-0.1,3.3-0.2,5.2-0.2,5.6c0,5.3,1.3,8.9,3.8,11
			c1.8,1.3,4.5,1.9,8.1,1.9c0.8,0,1.6,0,2.6-0.1c5.5-0.4,10.8-1.7,15.9-3.6c9.1-3.5,19.9-9.1,32.2-16.6c0.5-0.4,1.4-0.9,2.5-1.7
			c1.2-0.8,2.4-1.5,3.6-2.3c1.2-0.8,2.1-1.3,2.6-1.7c1.5-1,3.1-2,4.8-2.8c0.9-0.5,1.9-0.8,2.9-0.9h0.3c2.6,0,4.1,1.1,4.4,3.2v0.2
			c-0.1,1-0.6,1.9-1.3,2.6c-1.5,1.5-3.2,2.9-5.1,4.1c-0.4,0.3-1.3,0.9-2.5,1.6c-1.2,0.8-2.5,1.6-3.7,2.4c-1.3,0.8-2.2,1.4-2.8,1.8
			c-15.4,9.4-27.7,15.4-36.8,18.2c-2.7,0.8-5.5,1.3-8.3,1.7c-2.2,0.3-4.5,0.5-6.8,0.6C782.2,150.8,781.6,150.8,780.9,150.7z
			 M794.9,81.7c6.7-5.7,13.1-11.6,19.2-17.8c5.6-5.6,10.8-11.5,15.7-17.6c4-5.1,6-8.5,6-10.1v-0.5c-0.2-0.2-0.6-0.3-0.9-0.3
			c-1.4,0-3.9,1.4-7.5,4.1c-5.7,4.4-11.1,9.2-16.1,14.2c-5.8,5.7-11.2,11.8-16.1,18.1c-4.2,5.4-6.9,9.2-8.2,11.3
			c-1.3,2.1-2,3.5-2,4.2c0,0.2,0,0.3,0.1,0.5c0.1,0.2,0.3,0.4,0.5,0.3C786.6,88.1,789.7,86,794.9,81.7z"/>
		<path d="M842.8,148.5c-2.3-0.8-4.3-1.9-6-3.5c-1.8-1.5-3.2-3.3-4.2-5.3c-0.6-1.5-0.9-3.1-0.9-4.6c0-4,1.6-8.6,4.9-13.8
			c2.6-4.4,4.7-7.2,6.2-8.5c1.5-1.3,2.9-1.9,4.2-1.9c0.5,0,1,0.1,1.4,0.2c2.3,0.8,3.5,2.4,3.5,4.9c0,1-0.3,1.9-0.7,2.8
			c-0.8,1.5-1.7,3-2.7,4.5c-3.5,5.4-5.5,9.1-6.2,10.9c-0.6,1.3-0.9,2.6-1,4c0.1,1.3,1,2.5,2.2,3.2c0.5,0.2,1,0.3,1.6,0.2
			c0.7,0,1.7,0,3.1-0.1c4.9-0.2,11.2-1.6,18.9-4.1s18.8-6.8,33.4-12.8c5.8-2.5,10.9-4.6,15.3-6.5c4.4-1.8,7-2.9,8-3.2
			c1.2-0.3,2.4-0.5,3.6-0.6c2.7,0,4,1.2,4,3.6c0,0.6-0.1,1.2-0.4,1.8c-0.4,0.6-0.9,1.1-1.4,1.5c-1,0.6-4.5,2.2-10.4,4.8
			c-5.9,2.6-12.3,5.4-19.3,8.3c-7,2.9-12.6,5.2-17,6.9c-14.3,5.4-25.5,8-33.5,8C847.2,149.3,845,149,842.8,148.5z M856.6,97.9
			c-0.6-0.6-1-1.4-1-2.2c0.1-1.1,0.5-2.2,1.2-3.2c1.3-2.3,2.6-3.8,3.8-4.3c0.8-0.4,1.8-0.7,2.7-0.8c1.1,0,2.1,0.4,2.9,1.1
			c0.8,0.7,1.2,1.6,1.2,2.6c0,1.8-1.2,3.9-3.6,6.2c-1.5,1.2-2.8,1.8-4,1.8C858.4,99.2,857.4,98.7,856.6,97.9z"/>
		<path d="M911.8,142.8c-1.4-1-2.3-2.5-2.3-4.1c0-0.3,0-0.6,0.1-0.9c0.3-1.9,1.9-4.9,4.7-9.1c2.2-3.2,5.3-7.5,9.4-12.8
			c4.1-5.3,8-10.2,11.8-14.8c2.4-3.1,5.1-6,7.9-8.8c0.9-0.8,2.1-1.2,3.4-1.2c0.5,0,1,0.1,1.4,0.2c1.7,0.5,2.9,1.8,3.1,3.3
			c0.1,0.2,0.1,0.4,0.1,0.7c0,0.6-0.2,1.2-0.4,1.8c-0.6,1.3-1.4,2.6-2.3,3.8c-1.2,1.6-2.9,3.8-5.3,6.6c-4.2,5.1-7.2,8.7-8.7,10.8
			c-1.6,2-2.3,3.3-2.3,3.7c0,0.5,0.2,0.8,0.7,0.8c0.5,0,1.6-0.5,3.1-1.4c1.6-0.9,3.9-2.4,7.2-4.5c4.2-2.8,7.5-4.8,9.7-6.2
			c1.5-1,3.2-1.8,4.9-2.5c0.9-0.4,1.9-0.5,2.9-0.6c2.8-0.1,5.3,1.5,6,3.9c0.2,0.6,0.3,1.2,0.3,1.8v0.7c-0.2,1.6-0.6,3.2-1,4.8
			c-0.5,2-0.9,3.4-1.1,4.3c-0.2,0.7-0.3,1.5-0.3,2.3v0.5c0.1,0.6,0.3,1.2,0.5,1.7c0.9,1.4,2.9,2,6.2,2c0.8,0,1.7,0,2.7-0.1
			c6.7-0.8,13.3-2.2,19.6-4.2c8-2.3,15.7-5.1,23.3-8.3c3.1-1.3,5.5-1.9,7.3-1.9c0.5,0,1.1,0.1,1.6,0.2c1.3,0.3,2.2,1.4,2.2,2.6v0.6
			c-0.2,1.5-1.3,2.9-3.3,4.1c-5.6,3.1-13.5,6.2-23.6,9.3c-10.1,3.1-18.4,4.9-24.9,5.5h-1.3c-9.4,0-15.6-3.9-18.6-11.7
			c-0.3-1.1-0.8-2.1-1.5-3.1c-0.4-0.4-1-0.7-1.6-0.7c-0.3,0-0.5,0-0.8,0.1c-1,0.1-9.1,5.4-24.2,16c-2.7,1.8-4.8,3.2-6.3,4.1
			c-1.1,0.7-2.3,1.4-3.5,1.9c-0.8,0.3-1.8,0.5-2.7,0.5c-0.7,0-1.5-0.1-2.1-0.4C912.9,143.7,912.3,143.3,911.8,142.8z"/>
	</g>
</g>
</svg>
