<svg width="400" height="450" viewBox="0 0 400 450" fill="none" xmlns="http://www.w3.org/2000/svg">
<path fill-rule="evenodd" clip-rule="evenodd" d="M312.137 63.085L199.421 0L199.423 0.402371L1.26484 111.308V165.866L199.773 55.2886V54.9864C220.247 66.2056 230.918 71.9271 240.125 76.8271L198.347 100.214L198.181 100.121L148.085 128.349L0.982585 210.694V211.238L0.35912 211.589L0 211.387L0.381413 337.557L26.0935 352.003L47.766 339.263L47.7673 339.057L312.137 189.276V134.984L48.5019 283.835C48.6969 273.656 48.8855 261.835 49.0307 239.037L49.3012 239.187L186.257 161.652L289.907 103.68L290.091 103.781L312.273 91.8938L312.137 63.085Z" fill="#016466"/>
<path fill-rule="evenodd" clip-rule="evenodd" d="M400 113.068L351.701 86.1705V210.989L65.5033 372.077L75.995 377.98L75.609 378.291L199.315 447.528L200.638 448.286L200.654 448.277L203.733 450L220.834 437.034L398.718 337.925L400 338.705L400 337.211L400 113.068ZM160.772 371.891L200.42 394.082L351.701 308.819V261.147L351.181 265.323L160.772 371.891Z" fill="#5E7AB8"/>
</svg>
